<svg width="512" height="512" viewBox="0 0 512 512" fill="none" xmlns="http://www.w3.org/2000/svg">
<path d="M437.019 437.019C401.217 472.822 355.602 497.203 305.943 507.081C256.284 516.959 204.811 511.889 158.033 492.513C111.255 473.137 71.2734 440.325 43.1438 398.226C15.0141 356.127 3.11837e-06 306.632 0 256C-3.11837e-06 205.368 15.0141 155.873 43.1438 113.774C71.2734 71.6751 111.255 38.8629 158.033 19.4868C204.811 0.110812 256.284 -4.95885 305.943 4.91896C355.602 14.7968 401.217 39.1784 437.019 74.9806L355.561 156.439C335.869 136.748 310.781 123.338 283.469 117.905C256.156 112.473 227.846 115.261 202.118 125.918C176.39 136.575 154.4 154.621 138.929 177.776C123.458 200.93 115.2 228.152 115.2 256C115.2 283.848 123.458 311.07 138.929 334.224C154.4 357.379 176.39 375.425 202.118 386.082C227.846 396.739 256.156 399.527 283.469 394.095C310.781 388.662 335.869 375.252 355.561 355.561L437.019 437.019Z" fill="#22C55E"/>
</svg>
